<svg width="1440" height="1012" viewBox="0 0 1440 1012" fill="none" xmlns="http://www.w3.org/2000/svg">
<path d="M158.5 246C158.5 300.952 113.952 345.5 59 345.5C4.04767 345.5 -40.5 300.952 -40.5 246C-40.5 191.048 4.04767 146.5 59 146.5C113.952 146.5 158.5 191.048 158.5 246ZM637.5 100C637.5 154.952 592.952 199.5 538 199.5C483.048 199.5 438.5 154.952 438.5 100C438.5 45.0477 483.048 0.5 538 0.5C592.952 0.5 637.5 45.0477 637.5 100ZM504.5 362C504.5 416.952 459.952 461.5 405 461.5C350.048 461.5 305.5 416.952 305.5 362C305.5 307.048 350.048 262.5 405 262.5C459.952 262.5 504.5 307.048 504.5 362ZM244.5 812C244.5 866.952 199.952 911.5 145 911.5C90.0477 911.5 45.5 866.952 45.5 812C45.5 757.048 90.0477 712.5 145 712.5C199.952 712.5 244.5 757.048 244.5 812ZM1021.5 414C1021.5 468.952 976.952 513.5 922 513.5C867.048 513.5 822.5 468.952 822.5 414C822.5 359.048 867.048 314.5 922 314.5C976.952 314.5 1021.5 359.048 1021.5 414ZM1279.5 246C1279.5 300.952 1234.95 345.5 1180 345.5C1125.05 345.5 1080.5 300.952 1080.5 246C1080.5 191.048 1125.05 146.5 1180 146.5C1234.95 146.5 1279.5 191.048 1279.5 246ZM1003.5 118C1003.5 172.952 958.952 217.5 904 217.5C849.048 217.5 804.5 172.952 804.5 118C804.5 63.0477 849.048 18.5 904 18.5C958.952 18.5 1003.5 63.0477 1003.5 118ZM1479.5 489C1479.5 543.952 1434.95 588.5 1380 588.5C1325.05 588.5 1280.5 543.952 1280.5 489C1280.5 434.048 1325.05 389.5 1380 389.5C1434.95 389.5 1479.5 434.048 1479.5 489ZM1092.5 657C1092.5 711.952 1047.95 756.5 993 756.5C938.048 756.5 893.5 711.952 893.5 657C893.5 602.048 938.048 557.5 993 557.5C1047.95 557.5 1092.5 602.048 1092.5 657ZM1379.5 954C1379.5 1008.95 1334.95 1053.5 1280 1053.5C1225.05 1053.5 1180.5 1008.95 1180.5 954C1180.5 899.048 1225.05 854.5 1280 854.5C1334.95 854.5 1379.5 899.048 1379.5 954ZM803.5 912C803.5 966.952 758.952 1011.5 704 1011.5C649.048 1011.5 604.5 966.952 604.5 912C604.5 857.048 649.048 812.5 704 812.5C758.952 812.5 803.5 857.048 803.5 912Z" stroke="#b5b5b5"/>
</svg>
